Coordinates
version=1
nRows=15
nColumns=42
inDegrees=yes

Units are S.I. units (second, meters, Newtons, ...)
If the header above contains a line with 'inDegrees', this indicates whether rotational values are in degrees (yes) or radians (no).

endheader
time	pelvis_tilt	pelvis_list	pelvis_rotation	pelvis_tx	pelvis_ty	pelvis_tz	hip_flexion_r	hip_adduction_r	hip_rotation_r	knee_angle_r	knee_adduction_r	knee_angle_r_beta	ankle_angle_r	subtalar_angle_r	mtp_angle_r	hip_flexion_l	hip_adduction_l	hip_rotation_l	knee_angle_l	knee_adduction_l	knee_angle_l_beta	ankle_angle_l	subtalar_angle_l	mtp_angle_l	lumbar_extension	lumbar_bending	lumbar_rotation	arm_flex_r	arm_add_r	arm_rot_r	elbow_flex_r	pro_sup_r	wrist_flex_r	wrist_dev_r	arm_flex_l	arm_add_l	arm_rot_l	elbow_flex_l	pro_sup_l	wrist_flex_l	wrist_dev_l
      1.02000000	     23.07503052	      1.67214957	      4.19880856	     -1.29982472	      0.91287497	      0.14974044	    -29.60479797	      2.89801152	    -39.56988466	     17.58158237	     -4.69571803	      0.30685650	     38.84511433	     37.17404705	     -7.65358515	      4.91213625	      1.33036225	    -19.34337768	     31.80476786	    -11.15322638	      0.55509792	     23.03749506	     21.70425583	     -7.65358515	    -49.35546358	      3.80227619	     -0.81991033	     10.23029865	    -19.58662640	      9.10421705	     50.54060165	     90.00000001	      0.00000000	      0.00000000	      2.47643679	    -10.54964897	     -3.76735935	     44.00389652	     90.00000001	      0.00000000	      0.00000000
      1.03000000	     22.38705436	      1.26349500	      4.17811739	     -1.28730457	      0.90996661	      0.14977798	    -29.70659281	      3.47752813	    -39.60084368	     17.40440361	     -4.91361559	      0.30376415	     39.08505456	     37.07096332	     -7.65132299	      6.48464454	      1.10300780	    -18.86527616	     29.21563364	    -10.25778833	      0.50990900	     22.43072573	     22.72111432	     -7.65132299	    -48.69701358	      4.02988272	     -0.36289046	     10.49721632	    -19.82689985	      8.89111546	     50.60540210	     90.00000001	      0.00000000	      0.00000000	      1.89399633	    -10.37710351	     -4.01093655	     43.70800021	     90.00000001	      0.00000000	      0.00000000
      1.04000000	     21.69168353	      0.87157823	      4.13180431	     -1.27454419	      0.90694472	      0.14959742	    -29.76656054	      3.92148250	    -39.63741475	     17.48577477	     -5.04146354	      0.30518434	     39.52000548	     36.89845116	     -7.64325143	      8.02471825	      0.80614443	    -19.17539706	     26.68515310	     -9.60338107	      0.46574378	     21.68577122	     25.45743546	     -7.64325143	    -47.96810148	      4.25588224	      0.06969080	     10.75726853	    -19.88716663	      8.14202367	     50.47994363	     90.00000001	      0.00000000	      0.00000000	      1.54742549	     -9.87115658	     -5.16404644	     42.74031640	     90.00000001	      0.00000000	      0.00000000
      1.05000000	     21.01688125	      0.43669899	      4.13007984	     -1.26177255	      0.90398588	      0.14937928	    -29.80766237	      4.50016227	    -39.66409745	     17.50954129	     -5.35055407	      0.30559915	     39.68210964	     36.71431587	     -7.64086605	      9.35049153	      0.58244638	    -18.62893341	     24.18173550	     -8.82328758	      0.42205090	     21.09393256	     26.58625201	     -7.64086605	    -47.29302057	      4.54995276	      0.44542969	     10.96821064	    -20.08683682	      7.89695437	     50.53108106	     90.00000001	      0.00000000	      0.00000000	      0.95381442	     -9.69459002	     -5.41849234	     42.36295861	     90.00000001	      0.00000000	      0.00000000
      1.06000000	     20.35506634	      0.02435291	      4.07918374	     -1.24874463	      0.90104235	      0.14902247	    -29.83562918	      4.93305074	    -39.69017766	     17.73932941	     -5.58736143	      0.30960971	     39.89558883	     36.45425303	     -7.63230053	     10.68050365	      0.28602261	    -18.99536107	     22.01446003	     -8.31271248	      0.38422481	     20.51269364	     29.10294166	     -7.63230053	    -46.58080225	      4.82916573	      0.83302019	     11.15783319	    -20.07261809	      7.01619481	     50.41362614	     90.00000001	      0.00000000	      0.00000000	      0.66711049	     -9.18962207	     -6.60207100	     41.23571265	     90.00000001	      0.00000000	      0.00000000
      1.07000000	     19.72395916	     -0.38742806	      4.06157495	     -1.23565056	      0.89822797	      0.14863058	    -29.85688539	      5.44267077	    -39.70997255	     17.92015545	     -6.01033371	      0.31276572	     39.89923883	     36.24486165	     -7.63010521	     11.79891773	      0.10222139	    -18.58752495	     20.02127283	     -7.76444816	      0.34943713	     20.18298732	     29.97298105	     -7.63010521	    -45.91069828	      5.12649545	      1.14737757	     11.28997544	    -20.24279704	      6.80178503	     50.45392865	     90.00000001	      0.00000000	      0.00000000	      0.08707791	     -9.03010650	     -6.79848721	     40.88152029	     90.00000001	      0.00000000	      0.00000000
      1.08000000	     19.11670708	     -0.73918228	      4.01869220	     -1.22230348	      0.89551538	      0.14809035	    -29.87370435	      5.75686652	    -39.72816232	     18.32784270	     -6.37076759	      0.31988120	     39.83603994	     36.07898742	     -7.62774409	     12.82582894	     -0.00998624	    -18.41925378	     18.38896387	     -7.39494029	      0.32094797	     19.76989272	     31.23300903	     -7.62774409	    -45.23130046	      5.36842834	      1.41387399	     11.39352140	    -20.32560035	      6.46831274	     50.42149149	     90.00000001	      0.00000000	      0.00000000	     -0.39100746	     -8.81483817	     -7.12173770	     40.23074976	     90.00000001	      0.00000000	      0.00000000
      1.09000000	     18.54615580	     -1.09023066	      3.91163786	     -1.20866451	      0.89294617	      0.14747746	    -29.88605719	      5.97141828	    -39.74096240	     18.86857883	     -6.76082345	      0.32931883	     39.66644641	     35.88162454	     -7.62008535	     13.94881678	     -0.26952840	    -19.30773782	     17.52502576	     -7.25889404	      0.30586940	     19.65491241	     33.53174148	     -7.62008535	    -44.56168896	      5.61089188	      1.71668839	     11.44087182	    -20.20942173	      5.37228552	     50.24138962	     90.00000001	      0.00000000	      0.00000000	     -0.54586245	     -8.31987368	     -8.49539669	     38.78397913	     90.00000001	      0.00000000	      0.00000000
      1.10000000	     18.03301127	     -1.35159245	      3.80855800	     -1.19487116	      0.89058814	      0.14680108	    -29.89591639	      6.05075747	    -39.75112314	     19.57213148	     -7.24086249	      0.34159814	     39.37785239	     35.91088201	     -7.61832740	     14.75244768	     -0.26372117	    -19.21571936	     16.80338841	     -7.13211578	      0.29327445	     19.48834863	     34.16288917	     -7.61832740	    -43.93560845	      5.78252058	      1.88245242	     11.44279698	    -20.25216940	      5.15770390	     50.20726268	     90.00000001	      0.00000000	      0.00000000	     -1.05322306	     -8.15204227	     -8.75115549	     38.32261938	     90.00000001	      0.00000000	      0.00000000
      1.11000000	     17.54903735	     -1.59793086	      3.70717946	     -1.18079949	      0.88838327	      0.14604707	    -29.90415010	      6.10482711	    -39.75756746	     20.30126227	     -7.81857515	      0.35432387	     39.07661128	     35.82734012	     -7.61747696	     15.53583743	     -0.23762304	    -19.10729415	     16.69385282	     -7.16320822	      0.29136270	     19.35370085	     34.26388684	     -7.61747696	    -43.31135027	      5.94163798	      2.01690471	     11.34245341	    -20.32754882	      5.03322581	     50.16208367	     90.00000001	      0.00000000	      0.00000000	     -1.64656162	     -8.05012775	     -8.86141316	     37.96749893	     90.00000001	      0.00000000	      0.00000000
      1.12000000	     17.12690157	     -1.66349250	      3.49549075	     -1.16647107	      0.88648961	      0.14513005	    -29.91081343	      5.68675105	    -39.76573582	     21.43889908	     -8.20557865	      0.37417938	     38.31088338	     36.10754685	     -7.61546635	     16.13443784	     -0.00697527	    -19.33535265	     16.87890340	     -7.36919838	      0.29459244	     19.02367890	     35.08605203	     -7.61546635	    -42.73300559	      5.91680613	      2.13402305	     11.29094592	    -20.27036419	      4.60389801	     50.00793836	     90.00000001	      0.00000000	      0.00000000	     -1.90410223	     -7.84132739	     -9.29455306	     36.94885277	     90.00000001	      0.00000000	      0.00000000
      1.13000000	     16.73827917	     -1.70408759	      3.28408558	     -1.15187610	      0.88477303	      0.14419187	    -29.91614270	      5.30404630	    -39.76868182	     22.49219091	     -8.82150629	      0.39256279	     37.49647911	     36.37820548	     -7.61295126	     16.68392236	      0.25935507	    -19.49747345	     17.53938683	     -7.73790901	      0.30612005	     18.67543153	     35.61523842	     -7.61295126	    -42.15656923	      5.86343216	      2.23511030	     11.10980434	    -20.15864469	      4.07691716	     49.82022923	     90.00000001	      0.00000000	      0.00000000	     -2.12611178	     -7.63574457	     -9.91179506	     35.89639107	     90.00000001	      0.00000000	      0.00000000
      1.14000000	     16.36475206	     -1.64405495	      3.10974659	     -1.13701822	      0.88329747	      0.14314499	    -29.92078610	      4.80257410	    -39.76732833	     23.61285638	     -9.40990569	      0.41212209	     36.52221633	     36.66213540	     -7.60304602	     17.13083385	      0.72320770	    -19.30387181	     18.47498739	     -8.26362883	      0.32244936	     18.28275014	     35.97637605	     -7.60304602	    -41.56803309	      5.73528961	      2.28439057	     10.81783747	    -19.74203571	      2.77746283	     49.55667330	     90.00000001	      0.00000000	      0.00000000	     -2.02272532	     -7.07839794	    -12.10480065	     34.43166800	     90.00000001	      0.00000000	      0.00000000
      1.15000000	     16.05150515	     -1.46679976	      2.94410671	     -1.12213054	      0.88206277	      0.14195278	    -29.92406077	      4.11368921	    -39.76741841	     24.89775359	     -9.95428854	      0.43454778	     35.54694699	     36.82381679	     -7.60199830	     17.45624264	      1.36115158	    -18.67195933	     19.69740573	     -8.82474242	      0.34378458	     17.77426216	     35.86197328	     -7.60199830	    -41.05760467	      5.51200124	      2.12641834	     10.57981640	    -19.72603056	      2.72078977	     49.46108679	     90.00000001	      0.00000000	      0.00000000	     -2.44433884	     -7.11594187	    -12.24179062	     34.10091880	     90.00000001	      0.00000000	      0.00000000
      1.16000000	     15.79665263	     -1.13982347	      2.72207868	     -1.10706059	      0.88119529	      0.14075483	    -29.92716695	      3.23262605	    -39.76511156	     26.23466445	    -10.58586768	      0.45788127	     33.59538534	     37.18009058	     -7.60012461	     17.69545451	      2.12777823	    -18.32053016	     21.12701794	     -9.52721775	      0.36873602	     16.97506383	     35.49351185	     -7.60012461	    -40.60150929	      5.12417985	      2.00046237	     10.28392198	    -19.59963960	      2.54283076	     49.23613930	     90.00000001	      0.00000000	      0.00000000	     -2.65156120	     -7.08283159	    -12.55873555	     33.34734826	     90.00000001	      0.00000000	      0.00000000
